<svg xmlns="http://www.w3.org/2000/svg" viewBox="0 0 481 453.57">
  <defs>
    <style>
      .cls-1{fill:#1d71b8;}
      .cls-2{fill:#1d1d1b;stroke:#1d1d1b;stroke-miterlimit:10;}
    </style>
  </defs>
  <g id="Calque_2" data-name="Calque 2">
    <g id="Calque_1-2" data-name="Calque 1">
      <path class="cls-1" d="M254.49,430.28a12,12,0,0,1-.85-24c93.57-6.75,166.86-85.61,166.86-179.53S347.21,54,253.64,47.26a12,12,0,1,1,1.72-23.94,204,204,0,0,1,0,406.93Z"/>
      <path class="cls-1" d="M226.51,430.28l-.87,0a204,204,0,0,1,0-406.93,12,12,0,0,1,1.72,23.94C133.79,54,60.5,132.86,60.5,226.79s73.29,172.78,166.86,179.53a12,12,0,0,1-.85,24Z"/>
      <circle class="cls-2" cx="432.5" cy="226.79" r="48"/>
      <circle class="cls-2" cx="336.5" cy="60.51" r="60"/>
      <circle class="cls-2" cx="144.5" cy="60.51" r="60"/>
      <circle class="cls-2" cx="48.5" cy="226.79" r="48"/>
      <circle class="cls-2" cx="144.5" cy="393.06" r="60"/>
      <circle class="cls-2" cx="336.5" cy="393.06" r="60"/>
    </g>
  </g>
</svg>